<?xml version="1.0" standalone="no"?>
<!DOCTYPE svg PUBLIC "-//W3C//DTD SVG 20010904//EN"
 "http://www.w3.org/TR/2001/REC-SVG-20010904/DTD/svg10.dtd">
<svg version="1.0" xmlns="http://www.w3.org/2000/svg"
 width="230.000000pt" height="162.000000pt" viewBox="0 0 230.000000 162.000000"
 preserveAspectRatio="xMidYMid meet">

<g transform="translate(0.000000,162.000000) scale(0.100000,-0.100000)"
fill="#000000" stroke="none">
<path d="M613 1222 c-355 -229 -522 -343 -522 -354 -1 -17 16 -18 215 -18 200
0 215 1 212 18 -3 15 -21 18 -166 22 l-162 5 472 305 c260 168 477 305 483
304 6 -1 222 -138 480 -305 l469 -304 -140 -5 c-115 -4 -139 -8 -139 -20 0
-13 28 -15 189 -15 129 0 191 4 193 11 2 6 -100 78 -226 160 l-231 149 -2 155
-3 155 -77 3 -78 3 0 -101 c0 -55 -4 -100 -9 -100 -5 0 -103 61 -217 135 -114
74 -210 135 -213 135 -3 0 -241 -152 -528 -338z m1087 108 c0 -66 -3 -120 -6
-120 -4 0 -22 9 -40 21 l-34 21 0 99 0 99 40 0 40 0 0 -120z"/>
<path d="M1503 1173 c-10 -3 -13 -43 -13 -149 l0 -144 -190 0 -190 0 0 145 0
145 -195 0 -195 0 0 -540 0 -540 195 0 195 0 0 370 0 370 190 0 191 0 -1 -366
c-1 -379 1 -401 38 -378 15 10 17 43 20 378 l2 366 23 0 c33 0 62 24 54 44 -4
11 -18 16 -42 16 l-35 0 0 133 c0 146 -7 167 -47 150z"/>
<path d="M1675 780 c-75 -31 -109 -154 -66 -238 25 -48 67 -72 128 -72 91 0
143 58 143 160 0 99 -54 161 -141 159 -24 0 -53 -4 -64 -9z m105 -35 c82 -42
78 -199 -5 -237 -35 -16 -93 0 -117 33 -44 59 -31 165 26 200 38 23 58 24 96
4z"/>
<path d="M1977 638 c-32 -84 -57 -156 -57 -160 0 -5 9 -8 19 -8 13 0 23 11 31
35 l12 36 76 -3 76 -3 10 -32 c7 -25 14 -33 32 -33 l23 0 -30 83 c-17 45 -43
116 -59 157 -23 63 -31 75 -52 78 -23 3 -28 -6 -81 -150z m114 15 c10 -31 19
-60 19 -65 0 -4 -25 -8 -56 -8 -41 0 -55 3 -52 13 3 6 15 42 28 80 26 75 28
74 61 -20z"/>
<path d="M1610 304 c0 -125 0 -126 29 -155 26 -26 37 -29 89 -29 106 0 132 41
132 213 0 97 0 97 -25 97 l-25 0 0 -119 c0 -117 -1 -120 -26 -140 -36 -28 -79
-27 -109 4 -24 23 -25 30 -25 140 0 108 -1 115 -20 115 -19 0 -20 -7 -20 -126z"/>
<path d="M1930 275 l0 -155 80 0 c95 0 133 16 149 61 8 24 7 39 -4 65 -8 19
-19 34 -26 34 -7 0 -6 8 5 25 23 35 20 78 -7 103 -20 19 -35 22 -110 22 l-87
0 0 -155z m164 109 c19 -18 20 -38 6 -65 -9 -15 -22 -19 -70 -19 l-60 0 0 50
0 50 54 0 c36 0 60 -5 70 -16z m4 -130 c24 -17 30 -62 10 -82 -7 -7 -39 -12
-75 -12 l-63 0 0 55 0 55 53 0 c31 0 61 -6 75 -16z"/>
</g>
</svg>
